<svg xmlns="http://www.w3.org/2000/svg" version="1.1" xmlns:xlink="http://www.w3.org/1999/xlink" xmlns:svgjs="http://svgjs.dev/svgjs" width="1000" height="154" viewBox="0 0 1000 154"><g transform="matrix(1,0,0,1,-0.6060606060606233,0.09854620743740838)"><svg viewBox="0 0 396 61" data-background-color="#ffffff" preserveAspectRatio="xMidYMid meet" height="154" width="1000" xmlns="http://www.w3.org/2000/svg" xmlns:xlink="http://www.w3.org/1999/xlink"><g id="tight-bounds" transform="matrix(1,0,0,1,0.2400000000000091,-0.039034536712222234)"><svg viewBox="0 0 395.52 61.07806907342447" height="61.07806907342447" width="395.52"><g><svg viewBox="0 0 513.8656607592177 79.35356574209246" height="61.07806907342447" width="395.52"><g><rect width="5.178137808611971" height="68.9032408759124" x="99.61218837308746" y="5.225162433090027" fill="#113f67" opacity="1" stroke-width="0" stroke="transparent" fill-opacity="1" class="rect-r$-0" data-fill-palette-color="primary" rx="1%" id="r$-0" data-palette-color="#113f67"></rect></g><g transform="matrix(1,0,0,1,118.34566075921768,10.967099172749393)"><svg viewBox="0 0 395.52 57.41936739659367" height="57.41936739659367" width="395.52"><g id="textblocktransform"><svg viewBox="0 0 395.52 57.41936739659367" height="57.41936739659367" width="395.52" id="textblock"><g><svg viewBox="0 0 395.52 57.41936739659367" height="57.41936739659367" width="395.52"><g transform="matrix(1,0,0,1,0,0)"><svg width="395.52" viewBox="1 -35.05 246.58 35.8" height="57.41936739659367" data-palette-color="#113f67"><path d="M26.6 0L1 0 1-0.6 18.35-32 8.85-32Q7.2-32 6.18-31.25 5.15-30.5 4.35-29.05L4.35-29.05 2.05-25 1.55-25 1.9-33 26.35-33 26.35-32.4 9-1 19.9-1Q21.55-1 22.53-1.78 23.5-2.55 24.3-4L24.3-4 26.45-8 26.95-8 26.6 0ZM36.3 0.75L36.3 0.75Q33.4 0.75 31.42-0.9 29.45-2.55 29.45-5.65L29.45-5.65Q29.45-8 31.85-9.98 34.25-11.95 39.4-12.95L39.4-12.95Q40.2-13.1 41.2-13.28 42.2-13.45 43.3-13.65L43.3-13.65 43.3-17.6Q43.3-21 42.47-22.38 41.65-23.75 39.9-23.75L39.9-23.75Q38.7-23.75 38-22.98 37.3-22.2 37.1-20.3L37.1-20.3 37-19.75Q36.9-17.6 35.95-16.6 35-15.6 33.6-15.6L33.6-15.6Q32.3-15.6 31.45-16.4 30.6-17.2 30.6-18.55L30.6-18.55Q30.6-20.6 32.02-22 33.45-23.4 35.8-24.1 38.15-24.8 40.9-24.8L40.9-24.8Q45.35-24.8 47.77-22.63 50.2-20.45 50.2-15.55L50.2-15.55 50.2-4.5Q50.2-2.25 52.3-2.25L52.3-2.25 53.4-2.25 53.85-1.85Q52.9-0.65 51.77 0 50.65 0.65 48.6 0.65L48.6 0.65Q46.4 0.65 45.12-0.38 43.85-1.4 43.45-3.1L43.45-3.1Q41.95-1.5 40.37-0.38 38.8 0.75 36.3 0.75ZM39.35-2.3L39.35-2.3Q40.35-2.3 41.22-2.78 42.1-3.25 43.3-4.25L43.3-4.25 43.3-12.65Q42.8-12.55 42.3-12.45 41.8-12.35 41.15-12.25L41.15-12.25Q38.85-11.65 37.47-10.23 36.1-8.8 36.1-6.4L36.1-6.4Q36.1-4.35 37.05-3.33 38-2.3 39.35-2.3ZM67.3 0.75L67.3 0.75Q63.9 0.75 61.12-0.73 58.35-2.2 56.72-5.03 55.1-7.85 55.1-11.95L55.1-11.95Q55.1-16 56.87-18.88 58.65-21.75 61.62-23.28 64.59-24.8 68.15-24.8L68.15-24.8Q71.05-24.8 73.05-23.85 75.05-22.9 76.09-21.38 77.15-19.85 77.15-18.2L77.15-18.2Q77.15-16.8 76.3-16.03 75.45-15.25 74.09-15.25L74.09-15.25Q72.65-15.25 71.75-16.3 70.84-17.35 70.7-19.05L70.7-19.05Q70.65-20.15 70.75-20.93 70.84-21.7 70.75-22.5L70.75-22.5Q70.55-23.35 70.12-23.63 69.7-23.9 68.95-23.9L68.95-23.9Q65.9-23.9 64.22-21.25 62.55-18.6 62.55-12.8L62.55-12.8Q62.55-7.75 64.42-5.08 66.3-2.4 70.2-2.4L70.2-2.4Q72.55-2.4 74-3.25 75.45-4.1 76.8-5.8L76.8-5.8 77.3-5.4Q76.05-2.45 73.45-0.85 70.84 0.75 67.3 0.75ZM91.64 0L79.69 0 79.69-0.5 80.44-0.75Q82.14-1.3 82.14-3.2L82.14-3.2 82.14-29.95Q82.14-30.95 81.74-31.45 81.34-31.95 80.34-32.25L80.34-32.25 79.69-32.4 79.69-32.9 88.84-35.05 89.44-34.6 89.29-27.6 89.29-3.2Q89.29-1.2 90.94-0.7L90.94-0.7 91.64-0.5 91.64 0ZM107.04 0L98.24 0 89.34-12.5 98.59-21.05Q99.24-21.65 99.37-22.33 99.49-23 98.49-23.3L98.49-23.3 97.64-23.55 97.64-24.05 105.09-24.05 105.09-23.55 103.59-23.15Q102.49-22.8 101.82-22.33 101.14-21.85 100.19-21L100.19-21 94.59-15.75 103.54-3.3Q104.34-2.2 105.04-1.6 105.74-1 106.84-0.6L106.84-0.6 107.04-0.5 107.04 0ZM126.19 0L119.59 0 119.59-0.5 120.59-0.85Q122.29-1.4 122.29-3.7L122.29-3.7 122.29-29.3Q122.29-30.3 122.06-30.9 121.84-31.5 120.89-31.9L120.89-31.9 119.59-32.5 119.59-33 129.24-33 138.49-8.8 147.19-33 157.04-33 157.04-32.5 156.24-32.2Q155.29-31.85 154.94-31.23 154.59-30.6 154.59-29.6L154.59-29.6 154.59-3.45Q154.59-2.45 154.84-1.9 155.09-1.35 156.04-0.95L156.04-0.95 157.04-0.5 157.04 0 144.59 0 144.59-0.5 145.64-0.95Q146.59-1.35 146.84-1.9 147.09-2.45 147.09-3.45L147.09-3.45 147.09-14.7 147.19-29 136.74 0 134.24 0 123.34-28.65 123.49-16.2 123.49-3.6Q123.49-2.5 123.81-1.83 124.14-1.15 125.09-0.85L125.09-0.85 126.19-0.5 126.19 0ZM165.14-27.4L165.14-27.4Q163.44-27.4 162.26-28.48 161.09-29.55 161.09-31.2L161.09-31.2Q161.09-32.9 162.26-33.95 163.44-35 165.14-35L165.14-35Q166.84-35 167.99-33.95 169.14-32.9 169.14-31.2L169.14-31.2Q169.14-29.55 167.99-28.48 166.84-27.4 165.14-27.4ZM170.94 0L159.24 0 159.24-0.5 159.94-0.7Q160.94-1 161.31-1.6 161.69-2.2 161.69-3.2L161.69-3.2 161.69-18.85Q161.69-19.9 161.31-20.43 160.94-20.95 159.94-21.15L159.94-21.15 159.24-21.3 159.24-21.8 168.39-24.75 168.89-24.25 168.74-17.15 168.74-3.15Q168.74-2.15 169.11-1.55 169.49-0.95 170.44-0.65L170.44-0.65 170.94-0.5 170.94 0ZM185.23 0L173.28 0 173.28-0.5 173.88-0.7Q175.68-1.3 175.68-3.2L175.68-3.2 175.68-29.95Q175.68-30.95 175.28-31.48 174.88-32 173.88-32.25L173.88-32.25 173.23-32.4 173.23-32.9 182.38-35.05 182.98-34.6 182.78-27.6 182.78-10.5Q182.78-8.65 182.81-6.83 182.83-5 182.83-3.2L182.83-3.2Q182.83-2.2 183.23-1.58 183.63-0.95 184.58-0.65L184.58-0.65 185.23-0.5 185.23 0ZM199.53 0L187.58 0 187.58-0.5 188.18-0.7Q189.98-1.3 189.98-3.2L189.98-3.2 189.98-29.95Q189.98-30.95 189.58-31.48 189.18-32 188.18-32.25L188.18-32.25 187.53-32.4 187.53-32.9 196.68-35.05 197.28-34.6 197.08-27.6 197.08-10.5Q197.08-8.65 197.11-6.83 197.13-5 197.13-3.2L197.13-3.2Q197.13-2.2 197.53-1.58 197.93-0.95 198.88-0.65L198.88-0.65 199.53-0.5 199.53 0ZM214.28-24.8L214.28-24.8Q217.53-24.8 219.83-23.48 222.13-22.15 223.35-19.88 224.58-17.6 224.58-14.7L224.58-14.7Q224.58-14.15 224.53-13.58 224.48-13 224.33-12.55L224.33-12.55 209.43-12.55Q209.48-7.15 211.35-4.78 213.23-2.4 216.93-2.4L216.93-2.4Q219.43-2.4 220.98-3.2 222.53-4 223.88-5.55L223.88-5.55 224.38-5.1Q222.83-2.35 220.25-0.8 217.68 0.75 214.08 0.75L214.08 0.75Q210.53 0.75 207.78-0.78 205.03-2.3 203.48-5.15 201.93-8 201.93-11.95L201.93-11.95Q201.93-16.05 203.73-18.93 205.53-21.8 208.35-23.3 211.18-24.8 214.28-24.8ZM214.13-23.8L214.13-23.8Q212.68-23.8 211.65-22.93 210.63-22.05 210.05-19.83 209.48-17.6 209.43-13.55L209.43-13.55 217.98-13.55Q218.48-19 217.58-21.4 216.68-23.8 214.13-23.8ZM240.03 0L227.08 0 227.08-0.5 227.83-0.7Q228.83-1 229.2-1.6 229.58-2.2 229.58-3.15L229.58-3.15 229.58-18.8Q229.58-19.9 229.2-20.43 228.83-20.95 227.83-21.15L227.83-21.15 227.08-21.35 227.08-21.85 235.68-24.75 236.18-24.25 236.63-19.95 236.63-19.55Q237.33-20.95 238.45-22.13 239.58-23.3 240.95-24.05 242.33-24.8 243.68-24.8L243.68-24.8Q245.58-24.8 246.58-23.75 247.58-22.7 247.58-21.1L247.58-21.1Q247.58-19.4 246.6-18.48 245.63-17.55 244.28-17.55L244.28-17.55Q242.18-17.55 240.58-19.65L240.58-19.65 240.48-19.75Q239.98-20.45 239.33-20.53 238.68-20.6 238.13-19.9L238.13-19.9Q237.63-19.45 237.3-18.82 236.98-18.2 236.68-17.4L236.68-17.4 236.68-3.45Q236.68-1.45 238.43-0.95L238.43-0.95 240.03-0.5 240.03 0Z" opacity="1" transform="matrix(1,0,0,1,0,0)" fill="#113f67" class="wordmark-text-0" data-fill-palette-color="primary" id="text-0"></path></svg></g></svg></g></svg></g></svg></g><g><svg viewBox="0 0 86.05685379556921 79.35356574209246" height="79.35356574209246" width="86.05685379556921"><g><svg xmlns="http://www.w3.org/2000/svg" xmlns:xlink="http://www.w3.org/1999/xlink" version="1.1" x="0" y="0" viewBox="50 66 412.1 380" style="enable-background:new 0 0 512 512;" xml:space="preserve" height="79.35356574209246" width="86.05685379556921" class="icon-icon-0" data-fill-palette-color="accent" id="icon-0"><g fill="#87c0cd" data-fill-palette-color="accent"><path d="M50 326.9c0 12.8 10.7 23.1 23.6 23.1h364.9c12.8 0 23.6-10.3 23.6-23.1V306H50V326.9z" fill="#87c0cd" data-fill-palette-color="accent"></path><path d="M263.2 179.2C263.2 179.2 263.2 179.2 263.2 179.2c0-4.5-3.7-8.2-8.2-8.2-4.5 0-8.2 3.7-8.2 8.2s3.7 8.2 8.2 8.2C259.6 187.4 263.2 183.7 263.2 179.2z" fill="#87c0cd" data-fill-palette-color="accent"></path><path d="M255.1 116.1c-4.5 0-8.2 3.7-8.2 8.2 0 4.5 3.7 8.2 8.2 8.2 4.5 0 8.2-3.7 8.2-8.2 0 0 0 0 0 0C263.2 119.8 259.6 116.1 255.1 116.1z" fill="#87c0cd" data-fill-palette-color="accent"></path><path d="M255.1 227.7c-4.5 0-8.2 3.7-8.2 8.2 0 4.5 3.7 8.2 8.2 8.2 4.5 0 8.2-3.7 8.2-8.2C263.2 231.4 259.6 227.7 255.1 227.7z" fill="#87c0cd" data-fill-palette-color="accent"></path><path d="M200.2 171c-4.5 0-8.2 3.7-8.2 8.2s3.7 8.2 8.2 8.2c4.5 0 8.2-3.7 8.2-8.2 0 0 0 0 0 0C208.4 174.6 204.7 171 200.2 171z" fill="#87c0cd" data-fill-palette-color="accent"></path><path d="M200.2 132.5c4.5 0 8.2-3.7 8.2-8.2 0-4.5-3.7-8.2-8.2-8.2-4.5 0-8.2 3.7-8.2 8.2 0 0 0 0 0 0C192 128.8 195.7 132.5 200.2 132.5z" fill="#87c0cd" data-fill-palette-color="accent"></path><path d="M200.2 227.7c-4.5 0-8.2 3.7-8.2 8.2 0 4.5 3.7 8.2 8.2 8.2 4.5 0 8.2-3.7 8.2-8.2 0 0 0 0 0 0C208.4 231.4 204.7 227.7 200.2 227.7z" fill="#87c0cd" data-fill-palette-color="accent"></path><path d="M438.4 66H73.6C60.7 66 50.2 76.4 50 89.2V294h412V89.2C461.8 76.4 451.3 66 438.4 66zM291.6 124.3c0-11.1 9-20.2 20.2-20.2 11.2 0 20.2 9 20.2 20.2s-9 20.2-20.2 20.2S291.6 135.5 291.6 124.3C291.6 124.3 291.6 124.3 291.6 124.3zM200.2 256.1c-11.2 0-20.2-9-20.2-20.2 0-11.2 9-20.2 20.2-20.2 11.2 0 20.2 9 20.2 20.2C220.4 247.1 211.3 256.1 200.2 256.1zM275.2 235.9c0 11.2-9 20.2-20.1 20.3-11.2 0-20.2-9-20.3-20.1 0-1.8 0.2-3.6 0.7-5.3L203.8 199c-11 2-21.5-5.2-23.6-16.2-0.2-1.2-0.3-2.4-0.3-3.7 0-8.7 6.1-16.1 13.1-18.9v-17c-7-2.8-13.1-10.2-13.1-18.9 0-11.1 9-20.2 20.2-20.2s20.2 9 20.2 20.2c0 0 0 0 0 0 0.1 9.3-6.2 17.3-15.2 19.5v15.8c10.8 2.7 17.4 13.7 14.7 24.5-0.8 3.4-2.5 6.4-4.9 8.9l27.4 27.3c2.3-1.9 5-3.3 7.9-4v-17.7c-10.8-2.8-17.3-13.8-14.5-24.6 2.8-10.8 13.8-17.3 24.6-14.5 10.8 2.8 17.3 13.8 14.5 24.6-1.7 6.4-6.4 11.6-12.6 13.9V217C269.9 219.9 275.2 227.5 275.2 235.9L275.2 235.9zM319 198.1V217c7 2.8 13.1 10.2 13.1 18.9 0 11.1-9 20.2-20.2 20.2-11.1 0-20.2-9-20.2-20.2 0 0 0 0 0 0-0.1-9.3 6.2-17.3 15.2-19.5v-17.7c-10.8-2.7-17.4-13.7-14.6-24.5 0.3-1.3 0.8-2.6 1.4-3.9l-28.5-28.6c-9.7 5.7-22.1 2.5-27.8-7.1-5.7-9.7-2.5-22.1 7.1-27.8 9.7-5.7 22.1-2.5 27.8 7.1 3.4 5.8 3.8 12.9 0.9 18.9l28.6 28.8c3-1.7 6.4-2.6 9.9-2.6 11.2 0 20.2 9 20.3 20.2C332.1 187.8 326 195.3 319 198.1z" fill="#87c0cd" data-fill-palette-color="accent"></path><path d="M311.8 132.5c4.5 0 8.2-3.7 8.2-8.2 0-4.5-3.7-8.2-8.2-8.2-4.5 0-8.2 3.7-8.2 8.2 0 0 0 0 0 0C303.6 128.8 307.3 132.5 311.8 132.5z" fill="#87c0cd" data-fill-palette-color="accent"></path><path d="M311.8 171c-4.5 0-8.2 3.7-8.2 8.2s3.7 8.2 8.2 8.2 8.2-3.7 8.2-8.2c0 0 0 0 0 0C320 174.6 316.3 171 311.8 171z" fill="#87c0cd" data-fill-palette-color="accent"></path><path d="M311.8 227.7c-4.5 0-8.2 3.7-8.2 8.2 0 4.5 3.7 8.2 8.2 8.2 4.5 0 8.2-3.7 8.2-8.2C320 231.4 316.3 227.7 311.8 227.7z" fill="#87c0cd" data-fill-palette-color="accent"></path><path d="M351.2 434H318v-78H194v78h-27.9c-3.3 0-6 2.7-6 6s2.7 6 6 6h185c3.3 0 6-2.7 6-6S354.5 434 351.2 434z" fill="#87c0cd" data-fill-palette-color="accent"></path></g></svg></g></svg></g></svg></g><defs></defs></svg><rect width="395.52" height="61.07806907342447" fill="none" stroke="none" visibility="hidden"></rect></g></svg></g></svg>