<svg xmlns="http://www.w3.org/2000/svg" version="1.1" xmlns:xlink="http://www.w3.org/1999/xlink" xmlns:svgjs="http://svgjs.dev/svgjs" width="1000" height="1000" viewBox="0 0 1000 1000"><rect width="1000" height="1000" fill="#ffffff"></rect><g transform="matrix(0.7,0,0,0.7,149.57575757575756,391.2320067621813)"><svg viewBox="0 0 396 123" data-background-color="#ffffff" preserveAspectRatio="xMidYMid meet" height="310" width="1000" xmlns="http://www.w3.org/2000/svg" xmlns:xlink="http://www.w3.org/1999/xlink"><g id="tight-bounds" transform="matrix(1,0,0,1,0.2400000000000091,0.15190400115989178)"><svg viewBox="0 0 395.52 122.69619199768024" height="122.69619199768024" width="395.52"><g><svg viewBox="0 0 624.1091387154922 193.60794577099236" height="122.69619199768024" width="395.52"><g><rect width="12.633693453710654" height="168.11109618320606" x="182.8829493096595" y="12.74842479389315" fill="#113f67" opacity="1" stroke-width="0" stroke="transparent" fill-opacity="1" class="rect-o-0" data-fill-palette-color="primary" rx="1%" id="o-0" data-palette-color="#113f67"></rect></g><g transform="matrix(1,0,0,1,228.58913871549228,26.757682809160315)"><svg viewBox="0 0 395.5199999999999 140.09258015267173" height="140.09258015267173" width="395.5199999999999"><g id="textblocktransform"><svg viewBox="0 0 395.5199999999999 140.09258015267173" height="140.09258015267173" width="395.5199999999999" id="textblock"><g><svg viewBox="0 0 395.5199999999999 140.09258015267173" height="140.09258015267173" width="395.5199999999999"><g transform="matrix(1,0,0,1,0,0)"><svg width="395.5199999999999" viewBox="1 -33.900001525878906 98.25 34.80000305175781" height="140.09258015267173" data-palette-color="#113f67"><path d="M26.6 0L1 0 1-0.6 18.35-32 8.85-32Q7.2-32 6.18-31.25 5.15-30.5 4.35-29.05L4.35-29.05 2.05-25 1.55-25 1.9-33 26.35-33 26.35-32.4 9-1 19.9-1Q21.55-1 22.53-1.78 23.5-2.55 24.3-4L24.3-4 26.45-8 26.95-8 26.6 0ZM46.2 0.9L46.2 0.9Q41.1 0.9 37.22-1.23 33.35-3.35 31.17-7.28 29-11.2 29-16.55L29-16.55Q29-21.75 31.15-25.65 33.3-29.55 37.37-31.73 41.45-33.9 47.25-33.9L47.25-33.9Q49.9-33.9 52.17-33.3 54.45-32.7 56.5-31.55L56.5-31.55 56.7-24.55 56.2-24.55 53.4-29.75Q52.75-31 52.2-31.55 51.65-32.1 50.8-32.4L50.8-32.4Q50-32.65 49.32-32.77 48.65-32.9 47.55-32.9L47.55-32.9Q44.45-32.9 42.07-31.25 39.7-29.6 38.4-26 37.1-22.4 37.1-16.55L37.1-16.55Q37.1-10.75 38.32-7.1 39.55-3.45 41.8-1.78 44.05-0.1 47-0.1L47-0.1Q47.45-0.1 47.87-0.18 48.3-0.25 48.7-0.35L48.7-0.35Q49.65-0.5 49.95-1.15 50.25-1.8 50.25-2.7L50.25-2.7 50.25-12.6Q50.25-14.55 48.25-15L48.25-15 45.95-15.6 45.95-16.1 60.05-16.1 60.05-15.6 59.35-15.4Q57.45-14.8 57.45-12.9L57.45-12.9 57.45-2.05Q54.85-0.6 52.17 0.15 49.5 0.9 46.2 0.9ZM68.39 0L61.8 0 61.8-0.5 62.8-0.85Q64.5-1.4 64.5-3.7L64.5-3.7 64.5-29.3Q64.5-30.3 64.27-30.9 64.05-31.5 63.09-31.9L63.09-31.9 61.8-32.5 61.8-33 71.45-33 80.7-8.8 89.4-33 99.25-33 99.25-32.5 98.44-32.2Q97.5-31.85 97.15-31.23 96.8-30.6 96.8-29.6L96.8-29.6 96.8-3.45Q96.8-2.45 97.05-1.9 97.3-1.35 98.25-0.95L98.25-0.95 99.25-0.5 99.25 0 86.8 0 86.8-0.5 87.84-0.95Q88.8-1.35 89.05-1.9 89.3-2.45 89.3-3.45L89.3-3.45 89.3-14.7 89.4-29 78.95 0 76.45 0 65.55-28.65 65.7-16.2 65.7-3.6Q65.7-2.5 66.02-1.83 66.34-1.15 67.3-0.85L67.3-0.85 68.39-0.5 68.39 0Z" opacity="1" transform="matrix(1,0,0,1,0,0)" fill="#113f67" class="wordmark-text-0" data-fill-palette-color="primary" id="text-0"></path></svg></g></svg></g></svg></g></svg></g><g><svg viewBox="0 0 149.81045335753737 193.60794577099236" height="193.60794577099236" width="149.81045335753737"><g><svg xmlns="http://www.w3.org/2000/svg" xmlns:xlink="http://www.w3.org/1999/xlink" version="1.1" x="0" y="0" viewBox="12.982999801635742 1 75.68599700927734 97.81300354003906" enable-background="new 0 0 100 100" xml:space="preserve" height="193.60794577099236" width="149.81045335753737" class="icon-icon-0" data-fill-palette-color="accent" id="icon-0"><g fill="#87c0cd" data-fill-palette-color="accent"><polygon fill-rule="evenodd" clip-rule="evenodd" points="12.983,10.59 30.001,98.813 24.129,39.764 53.15,37.872 53.096,27.989    64.549,1 53.622,18.977  " fill="#87c0cd" data-fill-palette-color="accent"></polygon><polygon fill-rule="evenodd" clip-rule="evenodd" points="59.389,54.548 64.549,1.007 55.809,40.723 36.197,41.768 37.767,62.23    30.001,98.813 42.058,58.914  " fill="#87c0cd" data-fill-palette-color="accent"></polygon><polygon fill-rule="evenodd" clip-rule="evenodd" points="62.8,67.182 63.349,56.729 47.37,60.484 47.338,72.281 30.001,98.813    51.681,71.197  " fill="#87c0cd" data-fill-palette-color="accent"></polygon><polygon fill-rule="evenodd" clip-rule="evenodd" points="65.711,62.394 80.552,57.663 82.061,45.131 66.162,47.226  " fill="#87c0cd" data-fill-palette-color="accent"></polygon><polygon fill-rule="evenodd" clip-rule="evenodd" points="72.07,44.502 83.058,43.085 84.639,32.807 76.56,32.434 64.549,1    72.979,31.967  " fill="#87c0cd" data-fill-palette-color="accent"></polygon><polygon fill-rule="evenodd" clip-rule="evenodd" points="87.413,31.294 88.669,21.788 79.125,19.094 64.549,1 79.032,23.437    78.61,30.437  " fill="#87c0cd" data-fill-palette-color="accent"></polygon></g></svg></g></svg></g></svg></g><defs></defs></svg><rect width="395.52" height="122.69619199768024" fill="none" stroke="none" visibility="hidden"></rect></g></svg></g></svg>